<mxfile host="app.diagrams.net" modified="2024-10-18T09:52:52.007Z" agent="Mozilla/5.0 (Windows NT 10.0; Win64; x64) AppleWebKit/537.36 (KHTML, like Gecko) Chrome/129.0.0.0 Safari/537.36" etag="F-PbseB1H9noVa3tQLiG" version="24.7.1" type="device" pages="3">
  <diagram name="Pipeline Init" id="s8EyHswmJlwBS4ZVKl2n">
    <mxGraphModel dx="1831" dy="637" grid="1" gridSize="10" guides="1" tooltips="1" connect="1" arrows="1" fold="1" page="1" pageScale="1" pageWidth="827" pageHeight="1169" math="0" shadow="0">
      <root>
        <mxCell id="0" />
        <mxCell id="1" parent="0" />
        <mxCell id="OjHFjzKjsaAXr-ZGQnza-13" value="&lt;b&gt;&lt;font style=&quot;font-size: 14px;&quot; face=&quot;Lexend&quot;&gt;Pipeline Initialization&lt;/font&gt;&lt;/b&gt;" style="rounded=0;whiteSpace=wrap;html=1;fillColor=#dae8fc;strokeColor=#6c8ebf;verticalAlign=top;" vertex="1" parent="1">
          <mxGeometry x="-50" y="100" width="820" height="280" as="geometry" />
        </mxCell>
        <mxCell id="OjHFjzKjsaAXr-ZGQnza-5" value="" style="edgeStyle=orthogonalEdgeStyle;rounded=0;orthogonalLoop=1;jettySize=auto;html=1;" edge="1" parent="1" source="OjHFjzKjsaAXr-ZGQnza-1" target="OjHFjzKjsaAXr-ZGQnza-4">
          <mxGeometry relative="1" as="geometry" />
        </mxCell>
        <mxCell id="OjHFjzKjsaAXr-ZGQnza-10" value="" style="edgeStyle=orthogonalEdgeStyle;rounded=0;orthogonalLoop=1;jettySize=auto;html=1;" edge="1" parent="1" source="OjHFjzKjsaAXr-ZGQnza-1" target="OjHFjzKjsaAXr-ZGQnza-9">
          <mxGeometry relative="1" as="geometry" />
        </mxCell>
        <mxCell id="OjHFjzKjsaAXr-ZGQnza-12" style="edgeStyle=orthogonalEdgeStyle;rounded=0;orthogonalLoop=1;jettySize=auto;html=1;entryX=0.5;entryY=0;entryDx=0;entryDy=0;" edge="1" parent="1" source="OjHFjzKjsaAXr-ZGQnza-1" target="OjHFjzKjsaAXr-ZGQnza-11">
          <mxGeometry relative="1" as="geometry" />
        </mxCell>
        <mxCell id="OjHFjzKjsaAXr-ZGQnza-1" value="&lt;b&gt;&lt;font data-font-src=&quot;https://fonts.googleapis.com/css?family=Lexend&quot; face=&quot;Lexend&quot;&gt;Create and Fill Octree&lt;/font&gt;&lt;/b&gt;" style="rounded=1;whiteSpace=wrap;html=1;" vertex="1" parent="1">
          <mxGeometry x="260" y="160" width="120" height="60" as="geometry" />
        </mxCell>
        <mxCell id="OjHFjzKjsaAXr-ZGQnza-3" value="" style="edgeStyle=orthogonalEdgeStyle;rounded=0;orthogonalLoop=1;jettySize=auto;html=1;" edge="1" parent="1" source="OjHFjzKjsaAXr-ZGQnza-2" target="OjHFjzKjsaAXr-ZGQnza-1">
          <mxGeometry relative="1" as="geometry" />
        </mxCell>
        <mxCell id="OjHFjzKjsaAXr-ZGQnza-2" value="&lt;b&gt;&lt;font data-font-src=&quot;https://fonts.googleapis.com/css?family=Lexend&quot; face=&quot;Lexend&quot;&gt;Load Model&lt;/font&gt;&lt;/b&gt;" style="rounded=1;whiteSpace=wrap;html=1;" vertex="1" parent="1">
          <mxGeometry x="110" y="160" width="120" height="60" as="geometry" />
        </mxCell>
        <mxCell id="OjHFjzKjsaAXr-ZGQnza-8" style="edgeStyle=orthogonalEdgeStyle;rounded=0;orthogonalLoop=1;jettySize=auto;html=1;entryX=0.5;entryY=0;entryDx=0;entryDy=0;" edge="1" parent="1" source="OjHFjzKjsaAXr-ZGQnza-4" target="OjHFjzKjsaAXr-ZGQnza-7">
          <mxGeometry relative="1" as="geometry" />
        </mxCell>
        <mxCell id="kxgsmtMLmNuD3zFdJa81-3" value="" style="edgeStyle=orthogonalEdgeStyle;rounded=0;orthogonalLoop=1;jettySize=auto;html=1;" edge="1" parent="1" source="OjHFjzKjsaAXr-ZGQnza-4" target="kxgsmtMLmNuD3zFdJa81-1">
          <mxGeometry relative="1" as="geometry" />
        </mxCell>
        <mxCell id="OjHFjzKjsaAXr-ZGQnza-4" value="&lt;b&gt;&lt;font data-font-src=&quot;https://fonts.googleapis.com/css?family=Lexend&quot; face=&quot;Lexend&quot;&gt;Find Best Occluders&lt;/font&gt;&lt;/b&gt;" style="rounded=1;whiteSpace=wrap;html=1;" vertex="1" parent="1">
          <mxGeometry x="473" y="160" width="130" height="60" as="geometry" />
        </mxCell>
        <mxCell id="OjHFjzKjsaAXr-ZGQnza-7" value="&lt;font face=&quot;Lexend&quot;&gt;&lt;b&gt;Best Occluder Buffer&lt;/b&gt;&lt;/font&gt;" style="rounded=0;whiteSpace=wrap;html=1;fillColor=#fff2cc;strokeColor=#d6b656;" vertex="1" parent="1">
          <mxGeometry x="478" y="254" width="120" height="60" as="geometry" />
        </mxCell>
        <mxCell id="OjHFjzKjsaAXr-ZGQnza-9" value="&lt;font face=&quot;Lexend&quot;&gt;&lt;b&gt;Voxel Position Buffer&lt;/b&gt;&lt;/font&gt;" style="rounded=0;whiteSpace=wrap;html=1;fillColor=#fff2cc;strokeColor=#d6b656;" vertex="1" parent="1">
          <mxGeometry x="195" y="254" width="120" height="60" as="geometry" />
        </mxCell>
        <mxCell id="OjHFjzKjsaAXr-ZGQnza-11" value="&lt;font face=&quot;Lexend&quot;&gt;&lt;b&gt;Octree Node Buffer&lt;/b&gt;&lt;/font&gt;" style="rounded=0;whiteSpace=wrap;html=1;fillColor=#fff2cc;strokeColor=#d6b656;" vertex="1" parent="1">
          <mxGeometry x="330" y="254" width="120" height="60" as="geometry" />
        </mxCell>
        <mxCell id="OjHFjzKjsaAXr-ZGQnza-16" style="edgeStyle=orthogonalEdgeStyle;rounded=0;orthogonalLoop=1;jettySize=auto;html=1;entryX=0;entryY=0.5;entryDx=0;entryDy=0;" edge="1" parent="1" source="OjHFjzKjsaAXr-ZGQnza-15" target="OjHFjzKjsaAXr-ZGQnza-2">
          <mxGeometry relative="1" as="geometry" />
        </mxCell>
        <mxCell id="OjHFjzKjsaAXr-ZGQnza-15" value="&lt;font data-font-src=&quot;https://fonts.googleapis.com/css?family=Lexend&quot; face=&quot;Lexend&quot;&gt;&lt;b&gt;Entry Point&lt;/b&gt;&lt;/font&gt;" style="rhombus;whiteSpace=wrap;html=1;fillColor=#d5e8d4;strokeColor=#82b366;" vertex="1" parent="1">
          <mxGeometry x="-40" y="145" width="90" height="90" as="geometry" />
        </mxCell>
        <mxCell id="kxgsmtMLmNuD3zFdJa81-1" value="&lt;font data-font-src=&quot;https://fonts.googleapis.com/css?family=Lexend&quot; face=&quot;Lexend&quot;&gt;&lt;b&gt;End Init&lt;/b&gt;&lt;/font&gt;" style="rhombus;whiteSpace=wrap;html=1;fillColor=#f8cecc;strokeColor=#b85450;" vertex="1" parent="1">
          <mxGeometry x="671" y="145" width="90" height="90" as="geometry" />
        </mxCell>
        <mxCell id="B5mT4zEVgcLbJ1oBkHXF-1" value="" style="whiteSpace=wrap;html=1;aspect=fixed;fillColor=#fff2cc;strokeColor=#d6b656;" vertex="1" parent="1">
          <mxGeometry x="-40" y="348.5" width="20" height="20" as="geometry" />
        </mxCell>
        <mxCell id="B5mT4zEVgcLbJ1oBkHXF-2" value="" style="whiteSpace=wrap;html=1;aspect=fixed;fillColor=#d5e8d4;strokeColor=#82b366;" vertex="1" parent="1">
          <mxGeometry x="120" y="323.5" width="20" height="20" as="geometry" />
        </mxCell>
        <mxCell id="B5mT4zEVgcLbJ1oBkHXF-3" value="" style="whiteSpace=wrap;html=1;aspect=fixed;fillColor=#f8cecc;strokeColor=#b85450;" vertex="1" parent="1">
          <mxGeometry x="120" y="348.5" width="20" height="20" as="geometry" />
        </mxCell>
        <mxCell id="B5mT4zEVgcLbJ1oBkHXF-4" value="&lt;font style=&quot;font-size: 10px;&quot; data-font-src=&quot;https://fonts.googleapis.com/css?family=Lexend&quot; face=&quot;Lexend&quot;&gt;Resources (e.g. buffers)&lt;/font&gt;" style="text;html=1;align=left;verticalAlign=middle;whiteSpace=wrap;rounded=0;" vertex="1" parent="1">
          <mxGeometry x="-10" y="345.5" width="130" height="23" as="geometry" />
        </mxCell>
        <mxCell id="B5mT4zEVgcLbJ1oBkHXF-5" value="&lt;font style=&quot;font-size: 10px;&quot; data-font-src=&quot;https://fonts.googleapis.com/css?family=Lexend&quot; face=&quot;Lexend&quot;&gt;Entry point of routine&lt;/font&gt;" style="text;html=1;align=left;verticalAlign=middle;whiteSpace=wrap;rounded=0;" vertex="1" parent="1">
          <mxGeometry x="150" y="320.5" width="110" height="23" as="geometry" />
        </mxCell>
        <mxCell id="B5mT4zEVgcLbJ1oBkHXF-6" value="&lt;font style=&quot;font-size: 10px;&quot; data-font-src=&quot;https://fonts.googleapis.com/css?family=Lexend&quot; face=&quot;Lexend&quot;&gt;End point of routine&lt;/font&gt;" style="text;html=1;align=left;verticalAlign=middle;whiteSpace=wrap;rounded=0;" vertex="1" parent="1">
          <mxGeometry x="150" y="345.5" width="110" height="23" as="geometry" />
        </mxCell>
        <mxCell id="B5mT4zEVgcLbJ1oBkHXF-7" value="" style="whiteSpace=wrap;html=1;aspect=fixed;" vertex="1" parent="1">
          <mxGeometry x="-40" y="323" width="20" height="20" as="geometry" />
        </mxCell>
        <mxCell id="B5mT4zEVgcLbJ1oBkHXF-8" value="&lt;font style=&quot;font-size: 10px;&quot; data-font-src=&quot;https://fonts.googleapis.com/css?family=Lexend&quot; face=&quot;Lexend&quot;&gt;Pipeline stage&lt;/font&gt;" style="text;html=1;align=left;verticalAlign=middle;whiteSpace=wrap;rounded=0;" vertex="1" parent="1">
          <mxGeometry x="-10" y="320" width="130" height="23" as="geometry" />
        </mxCell>
      </root>
    </mxGraphModel>
  </diagram>
  <diagram id="qzJxNX6m_sxs_M4oYTDe" name="Render-Loop">
    <mxGraphModel dx="1193" dy="756" grid="1" gridSize="10" guides="1" tooltips="1" connect="1" arrows="1" fold="1" page="1" pageScale="1" pageWidth="827" pageHeight="1169" math="0" shadow="0">
      <root>
        <mxCell id="0" />
        <mxCell id="1" parent="0" />
        <mxCell id="jeYpNLzd9Fhykxu15r9t-1" value="&lt;b&gt;&lt;font style=&quot;font-size: 14px;&quot; face=&quot;Lexend&quot;&gt;Render-Loop&lt;/font&gt;&lt;/b&gt;" style="rounded=0;whiteSpace=wrap;html=1;fillColor=#dae8fc;strokeColor=#6c8ebf;verticalAlign=top;" vertex="1" parent="1">
          <mxGeometry x="60" y="140" width="850" height="380" as="geometry" />
        </mxCell>
        <mxCell id="jeYpNLzd9Fhykxu15r9t-2" value="" style="edgeStyle=orthogonalEdgeStyle;rounded=0;orthogonalLoop=1;jettySize=auto;html=1;" edge="1" parent="1" source="jeYpNLzd9Fhykxu15r9t-3" target="jeYpNLzd9Fhykxu15r9t-5">
          <mxGeometry relative="1" as="geometry" />
        </mxCell>
        <mxCell id="jeYpNLzd9Fhykxu15r9t-3" value="&lt;b&gt;&lt;font data-font-src=&quot;https://fonts.googleapis.com/css?family=Lexend&quot; face=&quot;Lexend&quot;&gt;Begin Frame&lt;/font&gt;&lt;/b&gt;" style="rhombus;whiteSpace=wrap;html=1;fillColor=#d5e8d4;strokeColor=#82b366;" vertex="1" parent="1">
          <mxGeometry x="75" y="220" width="95" height="95" as="geometry" />
        </mxCell>
        <mxCell id="jeYpNLzd9Fhykxu15r9t-4" value="" style="edgeStyle=orthogonalEdgeStyle;rounded=0;orthogonalLoop=1;jettySize=auto;html=1;" edge="1" parent="1" source="jeYpNLzd9Fhykxu15r9t-5" target="jeYpNLzd9Fhykxu15r9t-7">
          <mxGeometry relative="1" as="geometry" />
        </mxCell>
        <mxCell id="jeYpNLzd9Fhykxu15r9t-5" value="&lt;font face=&quot;Lexend&quot;&gt;&lt;b&gt;Depth Pre-Pass&lt;/b&gt;&lt;/font&gt;" style="rounded=1;whiteSpace=wrap;html=1;" vertex="1" parent="1">
          <mxGeometry x="230" y="237.5" width="120" height="60" as="geometry" />
        </mxCell>
        <mxCell id="jeYpNLzd9Fhykxu15r9t-6" value="" style="edgeStyle=orthogonalEdgeStyle;rounded=0;orthogonalLoop=1;jettySize=auto;html=1;" edge="1" parent="1" source="jeYpNLzd9Fhykxu15r9t-7" target="jeYpNLzd9Fhykxu15r9t-9">
          <mxGeometry relative="1" as="geometry" />
        </mxCell>
        <mxCell id="kbrqKADouflPHe1mUyW6-5" style="edgeStyle=orthogonalEdgeStyle;rounded=0;orthogonalLoop=1;jettySize=auto;html=1;entryX=0.5;entryY=0;entryDx=0;entryDy=0;" edge="1" parent="1" source="jeYpNLzd9Fhykxu15r9t-7" target="kbrqKADouflPHe1mUyW6-2">
          <mxGeometry relative="1" as="geometry">
            <Array as="points">
              <mxPoint x="450" y="310" />
              <mxPoint x="135" y="310" />
            </Array>
          </mxGeometry>
        </mxCell>
        <mxCell id="jeYpNLzd9Fhykxu15r9t-7" value="&lt;font face=&quot;Lexend&quot;&gt;&lt;b&gt;HiZ-Creation&lt;/b&gt;&lt;/font&gt;" style="rounded=1;whiteSpace=wrap;html=1;" vertex="1" parent="1">
          <mxGeometry x="390" y="237.5" width="120" height="60" as="geometry" />
        </mxCell>
        <mxCell id="jeYpNLzd9Fhykxu15r9t-8" style="edgeStyle=orthogonalEdgeStyle;rounded=0;orthogonalLoop=1;jettySize=auto;html=1;entryX=0;entryY=0.5;entryDx=0;entryDy=0;" edge="1" parent="1" source="jeYpNLzd9Fhykxu15r9t-9" target="jeYpNLzd9Fhykxu15r9t-11">
          <mxGeometry relative="1" as="geometry">
            <Array as="points">
              <mxPoint x="620" y="320" />
              <mxPoint x="210" y="320" />
              <mxPoint x="210" y="370" />
            </Array>
          </mxGeometry>
        </mxCell>
        <mxCell id="jeYpNLzd9Fhykxu15r9t-9" value="&lt;font face=&quot;Lexend&quot;&gt;&lt;b&gt;Invoke Amplification Shader&lt;/b&gt;&lt;/font&gt;" style="rounded=1;whiteSpace=wrap;html=1;" vertex="1" parent="1">
          <mxGeometry x="560" y="237.5" width="120" height="60" as="geometry" />
        </mxCell>
        <mxCell id="kbrqKADouflPHe1mUyW6-21" value="" style="edgeStyle=orthogonalEdgeStyle;rounded=0;orthogonalLoop=1;jettySize=auto;html=1;" edge="1" parent="1" source="jeYpNLzd9Fhykxu15r9t-11" target="kbrqKADouflPHe1mUyW6-20">
          <mxGeometry relative="1" as="geometry" />
        </mxCell>
        <mxCell id="jeYpNLzd9Fhykxu15r9t-11" value="&lt;font face=&quot;Lexend&quot;&gt;&lt;b&gt;View-Frustum- &amp;amp; Occlusion-Culling&lt;/b&gt;&lt;/font&gt;" style="rounded=1;whiteSpace=wrap;html=1;" vertex="1" parent="1">
          <mxGeometry x="230" y="340" width="120" height="60" as="geometry" />
        </mxCell>
        <mxCell id="jeYpNLzd9Fhykxu15r9t-12" value="" style="edgeStyle=orthogonalEdgeStyle;rounded=0;orthogonalLoop=1;jettySize=auto;html=1;" edge="1" parent="1" source="jeYpNLzd9Fhykxu15r9t-13" target="jeYpNLzd9Fhykxu15r9t-15">
          <mxGeometry relative="1" as="geometry" />
        </mxCell>
        <mxCell id="jeYpNLzd9Fhykxu15r9t-13" value="&lt;font face=&quot;Lexend&quot;&gt;&lt;b&gt;Invoke Mesh Shader&lt;/b&gt;&lt;/font&gt;" style="rounded=1;whiteSpace=wrap;html=1;" vertex="1" parent="1">
          <mxGeometry x="450" y="340" width="120" height="60" as="geometry" />
        </mxCell>
        <mxCell id="jeYpNLzd9Fhykxu15r9t-14" value="" style="edgeStyle=orthogonalEdgeStyle;rounded=0;orthogonalLoop=1;jettySize=auto;html=1;" edge="1" parent="1" source="jeYpNLzd9Fhykxu15r9t-15" target="jeYpNLzd9Fhykxu15r9t-16">
          <mxGeometry relative="1" as="geometry" />
        </mxCell>
        <mxCell id="jeYpNLzd9Fhykxu15r9t-15" value="&lt;font face=&quot;Lexend&quot;&gt;&lt;b&gt;Draw Voxels&lt;/b&gt;&lt;/font&gt;" style="rounded=1;whiteSpace=wrap;html=1;" vertex="1" parent="1">
          <mxGeometry x="620" y="340" width="120" height="60" as="geometry" />
        </mxCell>
        <mxCell id="jeYpNLzd9Fhykxu15r9t-16" value="&lt;b&gt;&lt;font data-font-src=&quot;https://fonts.googleapis.com/css?family=Lexend&quot; face=&quot;Lexend&quot;&gt;End Frame&lt;/font&gt;&lt;/b&gt;" style="rhombus;whiteSpace=wrap;html=1;fillColor=#f8cecc;strokeColor=#b85450;" vertex="1" parent="1">
          <mxGeometry x="797" y="322.5" width="95" height="95" as="geometry" />
        </mxCell>
        <mxCell id="kbrqKADouflPHe1mUyW6-7" style="edgeStyle=orthogonalEdgeStyle;rounded=0;orthogonalLoop=1;jettySize=auto;html=1;entryX=0.5;entryY=0;entryDx=0;entryDy=0;" edge="1" parent="1" source="IBTaDe7iABE_4UY-7F9H-1" target="jeYpNLzd9Fhykxu15r9t-5">
          <mxGeometry relative="1" as="geometry" />
        </mxCell>
        <mxCell id="IBTaDe7iABE_4UY-7F9H-1" value="&lt;font data-font-src=&quot;https://fonts.googleapis.com/css?family=Lexend&quot; face=&quot;Lexend&quot;&gt;&lt;b&gt;Best Occluder Buffer&lt;/b&gt;&lt;/font&gt;" style="rounded=0;whiteSpace=wrap;html=1;fillColor=#fff2cc;strokeColor=#d6b656;" vertex="1" parent="1">
          <mxGeometry x="230" y="150" width="120" height="60" as="geometry" />
        </mxCell>
        <mxCell id="kbrqKADouflPHe1mUyW6-15" value="" style="edgeStyle=orthogonalEdgeStyle;rounded=0;orthogonalLoop=1;jettySize=auto;html=1;" edge="1" parent="1" source="IBTaDe7iABE_4UY-7F9H-2" target="IBTaDe7iABE_4UY-7F9H-3">
          <mxGeometry relative="1" as="geometry" />
        </mxCell>
        <mxCell id="IBTaDe7iABE_4UY-7F9H-2" value="&lt;font data-font-src=&quot;https://fonts.googleapis.com/css?family=Lexend&quot; face=&quot;Lexend&quot;&gt;&lt;b&gt;Octree Node Buffer&lt;/b&gt;&lt;/font&gt;" style="rounded=0;whiteSpace=wrap;html=1;fillColor=#fff2cc;strokeColor=#d6b656;" vertex="1" parent="1">
          <mxGeometry x="75" y="430" width="120" height="60" as="geometry" />
        </mxCell>
        <mxCell id="kbrqKADouflPHe1mUyW6-23" style="edgeStyle=orthogonalEdgeStyle;rounded=0;orthogonalLoop=1;jettySize=auto;html=1;entryX=0.5;entryY=1;entryDx=0;entryDy=0;" edge="1" parent="1" source="IBTaDe7iABE_4UY-7F9H-3" target="kbrqKADouflPHe1mUyW6-20">
          <mxGeometry relative="1" as="geometry" />
        </mxCell>
        <mxCell id="IBTaDe7iABE_4UY-7F9H-3" value="&lt;font data-font-src=&quot;https://fonts.googleapis.com/css?family=Lexend&quot; face=&quot;Lexend&quot;&gt;&lt;b&gt;Voxel Position Buffer&lt;/b&gt;&lt;/font&gt;" style="rounded=0;whiteSpace=wrap;html=1;fillColor=#fff2cc;strokeColor=#d6b656;" vertex="1" parent="1">
          <mxGeometry x="240" y="430" width="120" height="60" as="geometry" />
        </mxCell>
        <mxCell id="kbrqKADouflPHe1mUyW6-6" style="edgeStyle=orthogonalEdgeStyle;rounded=0;orthogonalLoop=1;jettySize=auto;html=1;" edge="1" parent="1" source="kbrqKADouflPHe1mUyW6-2">
          <mxGeometry relative="1" as="geometry">
            <mxPoint x="260" y="400" as="targetPoint" />
            <Array as="points">
              <mxPoint x="135" y="420" />
              <mxPoint x="260" y="420" />
              <mxPoint x="260" y="400" />
            </Array>
          </mxGeometry>
        </mxCell>
        <mxCell id="kbrqKADouflPHe1mUyW6-2" value="&lt;font data-font-src=&quot;https://fonts.googleapis.com/css?family=Lexend&quot; face=&quot;Lexend&quot;&gt;&lt;b&gt;HiZ-Pyramid&lt;/b&gt;&lt;/font&gt;" style="rounded=0;whiteSpace=wrap;html=1;fillColor=#fff2cc;strokeColor=#d6b656;" vertex="1" parent="1">
          <mxGeometry x="75" y="340" width="120" height="60" as="geometry" />
        </mxCell>
        <mxCell id="kbrqKADouflPHe1mUyW6-22" value="" style="edgeStyle=orthogonalEdgeStyle;rounded=0;orthogonalLoop=1;jettySize=auto;html=1;" edge="1" parent="1" source="kbrqKADouflPHe1mUyW6-20" target="jeYpNLzd9Fhykxu15r9t-13">
          <mxGeometry relative="1" as="geometry" />
        </mxCell>
        <mxCell id="kbrqKADouflPHe1mUyW6-20" value="" style="triangle;whiteSpace=wrap;html=1;" vertex="1" parent="1">
          <mxGeometry x="390" y="354" width="24" height="32" as="geometry" />
        </mxCell>
        <mxCell id="sOSfwFV2Xb0-d1v2cXtI-1" value="" style="whiteSpace=wrap;html=1;aspect=fixed;fillColor=#fff2cc;strokeColor=#d6b656;" vertex="1" parent="1">
          <mxGeometry x="520" y="493" width="20" height="20" as="geometry" />
        </mxCell>
        <mxCell id="sOSfwFV2Xb0-d1v2cXtI-3" value="" style="whiteSpace=wrap;html=1;aspect=fixed;fillColor=#d5e8d4;strokeColor=#82b366;" vertex="1" parent="1">
          <mxGeometry x="680" y="468" width="20" height="20" as="geometry" />
        </mxCell>
        <mxCell id="sOSfwFV2Xb0-d1v2cXtI-4" value="" style="whiteSpace=wrap;html=1;aspect=fixed;fillColor=#f8cecc;strokeColor=#b85450;" vertex="1" parent="1">
          <mxGeometry x="680" y="493" width="20" height="20" as="geometry" />
        </mxCell>
        <mxCell id="sOSfwFV2Xb0-d1v2cXtI-5" value="&lt;font style=&quot;font-size: 10px;&quot; data-font-src=&quot;https://fonts.googleapis.com/css?family=Lexend&quot; face=&quot;Lexend&quot;&gt;Resources (e.g. buffers)&lt;/font&gt;" style="text;html=1;align=left;verticalAlign=middle;whiteSpace=wrap;rounded=0;" vertex="1" parent="1">
          <mxGeometry x="550" y="490" width="130" height="23" as="geometry" />
        </mxCell>
        <mxCell id="sOSfwFV2Xb0-d1v2cXtI-6" value="&lt;font style=&quot;font-size: 10px;&quot; data-font-src=&quot;https://fonts.googleapis.com/css?family=Lexend&quot; face=&quot;Lexend&quot;&gt;Entry point of routine&lt;/font&gt;" style="text;html=1;align=left;verticalAlign=middle;whiteSpace=wrap;rounded=0;" vertex="1" parent="1">
          <mxGeometry x="710" y="465" width="110" height="23" as="geometry" />
        </mxCell>
        <mxCell id="sOSfwFV2Xb0-d1v2cXtI-7" value="&lt;font style=&quot;font-size: 10px;&quot; data-font-src=&quot;https://fonts.googleapis.com/css?family=Lexend&quot; face=&quot;Lexend&quot;&gt;End point of routine&lt;/font&gt;" style="text;html=1;align=left;verticalAlign=middle;whiteSpace=wrap;rounded=0;" vertex="1" parent="1">
          <mxGeometry x="710" y="490" width="110" height="23" as="geometry" />
        </mxCell>
        <mxCell id="sOSfwFV2Xb0-d1v2cXtI-8" value="" style="whiteSpace=wrap;html=1;aspect=fixed;" vertex="1" parent="1">
          <mxGeometry x="520" y="467.5" width="20" height="20" as="geometry" />
        </mxCell>
        <mxCell id="sOSfwFV2Xb0-d1v2cXtI-9" value="&lt;font style=&quot;font-size: 10px;&quot; data-font-src=&quot;https://fonts.googleapis.com/css?family=Lexend&quot; face=&quot;Lexend&quot;&gt;Pipeline stage&lt;/font&gt;" style="text;html=1;align=left;verticalAlign=middle;whiteSpace=wrap;rounded=0;" vertex="1" parent="1">
          <mxGeometry x="550" y="464.5" width="130" height="23" as="geometry" />
        </mxCell>
      </root>
    </mxGraphModel>
  </diagram>
  <diagram id="PH2ADpGNx6rv9U-M5rkG" name="Octree Node Buffer">
    <mxGraphModel dx="1590" dy="484" grid="1" gridSize="10" guides="1" tooltips="1" connect="1" arrows="1" fold="1" page="1" pageScale="1" pageWidth="827" pageHeight="1169" math="0" shadow="0">
      <root>
        <mxCell id="0" />
        <mxCell id="1" parent="0" />
        <mxCell id="9ypEuFz8uEkBkYpkdbPo-1" value="&lt;b&gt;&lt;font data-font-src=&quot;https://fonts.googleapis.com/css?family=Lexend&quot; face=&quot;Lexend&quot;&gt;Voxel Position Buffer&lt;/font&gt;&lt;/b&gt;" style="rounded=0;whiteSpace=wrap;html=1;verticalAlign=top;fillColor=#dae8fc;strokeColor=#6c8ebf;" vertex="1" parent="1">
          <mxGeometry x="-20" y="250" width="660" height="140" as="geometry" />
        </mxCell>
        <mxCell id="9ypEuFz8uEkBkYpkdbPo-2" value="&lt;b&gt;&lt;font data-font-src=&quot;https://fonts.googleapis.com/css?family=Lexend&quot; face=&quot;Lexend&quot;&gt;x: 3&lt;/font&gt;&lt;/b&gt;&lt;div&gt;&lt;b&gt;&lt;font data-font-src=&quot;https://fonts.googleapis.com/css?family=Lexend&quot; face=&quot;Lexend&quot;&gt;y: 3&lt;/font&gt;&lt;/b&gt;&lt;/div&gt;&lt;div&gt;&lt;b&gt;&lt;font data-font-src=&quot;https://fonts.googleapis.com/css?family=Lexend&quot; face=&quot;Lexend&quot;&gt;z: 5&lt;/font&gt;&lt;/b&gt;&lt;/div&gt;" style="rounded=0;whiteSpace=wrap;html=1;fillColor=#f8cecc;strokeColor=#b85450;" vertex="1" parent="1">
          <mxGeometry x="100" y="285" width="30" height="50" as="geometry" />
        </mxCell>
        <mxCell id="9ypEuFz8uEkBkYpkdbPo-3" value="&lt;b&gt;&lt;font data-font-src=&quot;https://fonts.googleapis.com/css?family=Lexend&quot; face=&quot;Lexend&quot;&gt;x: 3&lt;/font&gt;&lt;/b&gt;&lt;div&gt;&lt;b&gt;&lt;font data-font-src=&quot;https://fonts.googleapis.com/css?family=Lexend&quot; face=&quot;Lexend&quot;&gt;y: 3&lt;/font&gt;&lt;/b&gt;&lt;/div&gt;&lt;div&gt;&lt;b&gt;&lt;font data-font-src=&quot;https://fonts.googleapis.com/css?family=Lexend&quot; face=&quot;Lexend&quot;&gt;z: 6&lt;/font&gt;&lt;/b&gt;&lt;/div&gt;" style="rounded=0;whiteSpace=wrap;html=1;fillColor=#f8cecc;strokeColor=#b85450;" vertex="1" parent="1">
          <mxGeometry x="130" y="285" width="30" height="50" as="geometry" />
        </mxCell>
        <mxCell id="9ypEuFz8uEkBkYpkdbPo-4" value="&lt;b&gt;&lt;font data-font-src=&quot;https://fonts.googleapis.com/css?family=Lexend&quot; face=&quot;Lexend&quot;&gt;x: 3&lt;/font&gt;&lt;/b&gt;&lt;div&gt;&lt;b&gt;&lt;font data-font-src=&quot;https://fonts.googleapis.com/css?family=Lexend&quot; face=&quot;Lexend&quot;&gt;y: 3&lt;/font&gt;&lt;/b&gt;&lt;/div&gt;&lt;div&gt;&lt;b&gt;&lt;font data-font-src=&quot;https://fonts.googleapis.com/css?family=Lexend&quot; face=&quot;Lexend&quot;&gt;z: 7&lt;/font&gt;&lt;/b&gt;&lt;/div&gt;" style="rounded=0;whiteSpace=wrap;html=1;fillColor=#f8cecc;strokeColor=#b85450;" vertex="1" parent="1">
          <mxGeometry x="160" y="285" width="30" height="50" as="geometry" />
        </mxCell>
        <mxCell id="9ypEuFz8uEkBkYpkdbPo-5" value="&lt;b&gt;&lt;font data-font-src=&quot;https://fonts.googleapis.com/css?family=Lexend&quot; face=&quot;Lexend&quot;&gt;x: 3&lt;/font&gt;&lt;/b&gt;&lt;div&gt;&lt;b&gt;&lt;font data-font-src=&quot;https://fonts.googleapis.com/css?family=Lexend&quot; face=&quot;Lexend&quot;&gt;y: 3&lt;/font&gt;&lt;/b&gt;&lt;/div&gt;&lt;div&gt;&lt;b&gt;&lt;font data-font-src=&quot;https://fonts.googleapis.com/css?family=Lexend&quot; face=&quot;Lexend&quot;&gt;z: 8&lt;/font&gt;&lt;/b&gt;&lt;/div&gt;" style="rounded=0;whiteSpace=wrap;html=1;fillColor=#f8cecc;strokeColor=#b85450;" vertex="1" parent="1">
          <mxGeometry x="190" y="285" width="30" height="50" as="geometry" />
        </mxCell>
        <mxCell id="9ypEuFz8uEkBkYpkdbPo-6" value="&lt;b&gt;&lt;font data-font-src=&quot;https://fonts.googleapis.com/css?family=Lexend&quot; face=&quot;Lexend&quot;&gt;x: 3&lt;/font&gt;&lt;/b&gt;&lt;div&gt;&lt;b&gt;&lt;font data-font-src=&quot;https://fonts.googleapis.com/css?family=Lexend&quot; face=&quot;Lexend&quot;&gt;y: 4&lt;/font&gt;&lt;/b&gt;&lt;/div&gt;&lt;div&gt;&lt;b&gt;&lt;font data-font-src=&quot;https://fonts.googleapis.com/css?family=Lexend&quot; face=&quot;Lexend&quot;&gt;z: 5&lt;/font&gt;&lt;/b&gt;&lt;/div&gt;" style="rounded=0;whiteSpace=wrap;html=1;fillColor=#e1d5e7;strokeColor=#9673a6;" vertex="1" parent="1">
          <mxGeometry x="220" y="285" width="30" height="50" as="geometry" />
        </mxCell>
        <mxCell id="9ypEuFz8uEkBkYpkdbPo-7" value="&lt;b&gt;&lt;font data-font-src=&quot;https://fonts.googleapis.com/css?family=Lexend&quot; face=&quot;Lexend&quot;&gt;x: 3&lt;/font&gt;&lt;/b&gt;&lt;div&gt;&lt;b&gt;&lt;font data-font-src=&quot;https://fonts.googleapis.com/css?family=Lexend&quot; face=&quot;Lexend&quot;&gt;y: 4&lt;/font&gt;&lt;/b&gt;&lt;/div&gt;&lt;div&gt;&lt;b&gt;&lt;font data-font-src=&quot;https://fonts.googleapis.com/css?family=Lexend&quot; face=&quot;Lexend&quot;&gt;z: 6&lt;/font&gt;&lt;/b&gt;&lt;/div&gt;" style="rounded=0;whiteSpace=wrap;html=1;fillColor=#e1d5e7;strokeColor=#9673a6;" vertex="1" parent="1">
          <mxGeometry x="250" y="285" width="30" height="50" as="geometry" />
        </mxCell>
        <mxCell id="9ypEuFz8uEkBkYpkdbPo-8" value="&lt;b&gt;&lt;font data-font-src=&quot;https://fonts.googleapis.com/css?family=Lexend&quot; face=&quot;Lexend&quot;&gt;x: 3&lt;/font&gt;&lt;/b&gt;&lt;div&gt;&lt;b&gt;&lt;font data-font-src=&quot;https://fonts.googleapis.com/css?family=Lexend&quot; face=&quot;Lexend&quot;&gt;y: 4&lt;/font&gt;&lt;/b&gt;&lt;/div&gt;&lt;div&gt;&lt;b&gt;&lt;font data-font-src=&quot;https://fonts.googleapis.com/css?family=Lexend&quot; face=&quot;Lexend&quot;&gt;z: 7&lt;/font&gt;&lt;/b&gt;&lt;/div&gt;" style="rounded=0;whiteSpace=wrap;html=1;fillColor=#e1d5e7;strokeColor=#9673a6;" vertex="1" parent="1">
          <mxGeometry x="280" y="285" width="30" height="50" as="geometry" />
        </mxCell>
        <mxCell id="9ypEuFz8uEkBkYpkdbPo-9" value="&lt;b&gt;&lt;font data-font-src=&quot;https://fonts.googleapis.com/css?family=Lexend&quot; face=&quot;Lexend&quot;&gt;x: 3&lt;/font&gt;&lt;/b&gt;&lt;div&gt;&lt;b&gt;&lt;font data-font-src=&quot;https://fonts.googleapis.com/css?family=Lexend&quot; face=&quot;Lexend&quot;&gt;y: 4&lt;/font&gt;&lt;/b&gt;&lt;/div&gt;&lt;div&gt;&lt;b&gt;&lt;font data-font-src=&quot;https://fonts.googleapis.com/css?family=Lexend&quot; face=&quot;Lexend&quot;&gt;z: 8&lt;/font&gt;&lt;/b&gt;&lt;/div&gt;" style="rounded=0;whiteSpace=wrap;html=1;fillColor=#e1d5e7;strokeColor=#9673a6;" vertex="1" parent="1">
          <mxGeometry x="310" y="285" width="30" height="50" as="geometry" />
        </mxCell>
        <mxCell id="9ypEuFz8uEkBkYpkdbPo-18" value="&lt;b&gt;&lt;font data-font-src=&quot;https://fonts.googleapis.com/css?family=Lexend&quot; face=&quot;Lexend&quot;&gt;x: 3&lt;/font&gt;&lt;/b&gt;&lt;div&gt;&lt;b&gt;&lt;font data-font-src=&quot;https://fonts.googleapis.com/css?family=Lexend&quot; face=&quot;Lexend&quot;&gt;y: 5&lt;/font&gt;&lt;/b&gt;&lt;/div&gt;&lt;div&gt;&lt;b&gt;&lt;font data-font-src=&quot;https://fonts.googleapis.com/css?family=Lexend&quot; face=&quot;Lexend&quot;&gt;z: 5&lt;/font&gt;&lt;/b&gt;&lt;/div&gt;" style="rounded=0;whiteSpace=wrap;html=1;fillColor=#e1d5e7;strokeColor=#9673a6;" vertex="1" parent="1">
          <mxGeometry x="340" y="285" width="30" height="50" as="geometry" />
        </mxCell>
        <mxCell id="9ypEuFz8uEkBkYpkdbPo-19" value="&lt;b&gt;&lt;font data-font-src=&quot;https://fonts.googleapis.com/css?family=Lexend&quot; face=&quot;Lexend&quot;&gt;x: 3&lt;/font&gt;&lt;/b&gt;&lt;div&gt;&lt;b&gt;&lt;font data-font-src=&quot;https://fonts.googleapis.com/css?family=Lexend&quot; face=&quot;Lexend&quot;&gt;y: 5&lt;/font&gt;&lt;/b&gt;&lt;/div&gt;&lt;div&gt;&lt;b&gt;&lt;font data-font-src=&quot;https://fonts.googleapis.com/css?family=Lexend&quot; face=&quot;Lexend&quot;&gt;z: 6&lt;/font&gt;&lt;/b&gt;&lt;/div&gt;" style="rounded=0;whiteSpace=wrap;html=1;fillColor=#e1d5e7;strokeColor=#9673a6;" vertex="1" parent="1">
          <mxGeometry x="370" y="285" width="30" height="50" as="geometry" />
        </mxCell>
        <mxCell id="9ypEuFz8uEkBkYpkdbPo-20" value="&lt;b&gt;&lt;font data-font-src=&quot;https://fonts.googleapis.com/css?family=Lexend&quot; face=&quot;Lexend&quot;&gt;x: 3&lt;/font&gt;&lt;/b&gt;&lt;div&gt;&lt;b&gt;&lt;font data-font-src=&quot;https://fonts.googleapis.com/css?family=Lexend&quot; face=&quot;Lexend&quot;&gt;y: 5&lt;/font&gt;&lt;/b&gt;&lt;/div&gt;&lt;div&gt;&lt;b&gt;&lt;font data-font-src=&quot;https://fonts.googleapis.com/css?family=Lexend&quot; face=&quot;Lexend&quot;&gt;z: 7&lt;/font&gt;&lt;/b&gt;&lt;/div&gt;" style="rounded=0;whiteSpace=wrap;html=1;fillColor=#e1d5e7;strokeColor=#9673a6;" vertex="1" parent="1">
          <mxGeometry x="400" y="285" width="30" height="50" as="geometry" />
        </mxCell>
        <mxCell id="9ypEuFz8uEkBkYpkdbPo-21" value="&lt;b&gt;&lt;font data-font-src=&quot;https://fonts.googleapis.com/css?family=Lexend&quot; face=&quot;Lexend&quot;&gt;x: 3&lt;/font&gt;&lt;/b&gt;&lt;div&gt;&lt;b&gt;&lt;font data-font-src=&quot;https://fonts.googleapis.com/css?family=Lexend&quot; face=&quot;Lexend&quot;&gt;y: 5&lt;/font&gt;&lt;/b&gt;&lt;/div&gt;&lt;div&gt;&lt;b&gt;&lt;font data-font-src=&quot;https://fonts.googleapis.com/css?family=Lexend&quot; face=&quot;Lexend&quot;&gt;z: 8&lt;/font&gt;&lt;/b&gt;&lt;/div&gt;" style="rounded=0;whiteSpace=wrap;html=1;fillColor=#e1d5e7;strokeColor=#9673a6;" vertex="1" parent="1">
          <mxGeometry x="430" y="285" width="30" height="50" as="geometry" />
        </mxCell>
        <mxCell id="9ypEuFz8uEkBkYpkdbPo-22" value="&lt;b&gt;&lt;font data-font-src=&quot;https://fonts.googleapis.com/css?family=Lexend&quot; face=&quot;Lexend&quot;&gt;x: 3&lt;/font&gt;&lt;/b&gt;&lt;div&gt;&lt;b&gt;&lt;font data-font-src=&quot;https://fonts.googleapis.com/css?family=Lexend&quot; face=&quot;Lexend&quot;&gt;y: 6&lt;/font&gt;&lt;/b&gt;&lt;/div&gt;&lt;div&gt;&lt;b&gt;&lt;font data-font-src=&quot;https://fonts.googleapis.com/css?family=Lexend&quot; face=&quot;Lexend&quot;&gt;z: 5&lt;/font&gt;&lt;/b&gt;&lt;/div&gt;" style="rounded=0;whiteSpace=wrap;html=1;fillColor=#e1d5e7;strokeColor=#9673a6;" vertex="1" parent="1">
          <mxGeometry x="460" y="285" width="30" height="50" as="geometry" />
        </mxCell>
        <mxCell id="9ypEuFz8uEkBkYpkdbPo-23" value="&lt;b&gt;&lt;font data-font-src=&quot;https://fonts.googleapis.com/css?family=Lexend&quot; face=&quot;Lexend&quot;&gt;x: 3&lt;/font&gt;&lt;/b&gt;&lt;div&gt;&lt;b&gt;&lt;font data-font-src=&quot;https://fonts.googleapis.com/css?family=Lexend&quot; face=&quot;Lexend&quot;&gt;y: 6&lt;/font&gt;&lt;/b&gt;&lt;/div&gt;&lt;div&gt;&lt;b&gt;&lt;font data-font-src=&quot;https://fonts.googleapis.com/css?family=Lexend&quot; face=&quot;Lexend&quot;&gt;z: 6&lt;/font&gt;&lt;/b&gt;&lt;/div&gt;" style="rounded=0;whiteSpace=wrap;html=1;fillColor=#e1d5e7;strokeColor=#9673a6;" vertex="1" parent="1">
          <mxGeometry x="490" y="285" width="30" height="50" as="geometry" />
        </mxCell>
        <mxCell id="9ypEuFz8uEkBkYpkdbPo-24" value="&lt;b&gt;&lt;font data-font-src=&quot;https://fonts.googleapis.com/css?family=Lexend&quot; face=&quot;Lexend&quot;&gt;x: 3&lt;/font&gt;&lt;/b&gt;&lt;div&gt;&lt;b&gt;&lt;font data-font-src=&quot;https://fonts.googleapis.com/css?family=Lexend&quot; face=&quot;Lexend&quot;&gt;y: 6&lt;/font&gt;&lt;/b&gt;&lt;/div&gt;&lt;div&gt;&lt;b&gt;&lt;font data-font-src=&quot;https://fonts.googleapis.com/css?family=Lexend&quot; face=&quot;Lexend&quot;&gt;z: 7&lt;/font&gt;&lt;/b&gt;&lt;/div&gt;" style="rounded=0;whiteSpace=wrap;html=1;fillColor=#e1d5e7;strokeColor=#9673a6;" vertex="1" parent="1">
          <mxGeometry x="520" y="285" width="30" height="50" as="geometry" />
        </mxCell>
        <mxCell id="9ypEuFz8uEkBkYpkdbPo-25" value="&lt;b&gt;&lt;font data-font-src=&quot;https://fonts.googleapis.com/css?family=Lexend&quot; face=&quot;Lexend&quot;&gt;x: 3&lt;/font&gt;&lt;/b&gt;&lt;div&gt;&lt;b&gt;&lt;font data-font-src=&quot;https://fonts.googleapis.com/css?family=Lexend&quot; face=&quot;Lexend&quot;&gt;y: 6&lt;/font&gt;&lt;/b&gt;&lt;/div&gt;&lt;div&gt;&lt;b&gt;&lt;font data-font-src=&quot;https://fonts.googleapis.com/css?family=Lexend&quot; face=&quot;Lexend&quot;&gt;z: 8&lt;/font&gt;&lt;/b&gt;&lt;/div&gt;" style="rounded=0;whiteSpace=wrap;html=1;fillColor=#e1d5e7;strokeColor=#9673a6;" vertex="1" parent="1">
          <mxGeometry x="550" y="285" width="30" height="50" as="geometry" />
        </mxCell>
        <mxCell id="9ypEuFz8uEkBkYpkdbPo-26" value="&lt;font face=&quot;Lexend&quot;&gt;&lt;b&gt;. . .&lt;/b&gt;&lt;/font&gt;" style="rounded=0;whiteSpace=wrap;html=1;fillColor=#f5f5f5;strokeColor=#666666;fontColor=#333333;" vertex="1" parent="1">
          <mxGeometry x="580" y="285" width="30" height="50" as="geometry" />
        </mxCell>
        <mxCell id="9ypEuFz8uEkBkYpkdbPo-27" value="&lt;font face=&quot;Lexend&quot;&gt;&lt;b&gt;. . .&lt;/b&gt;&lt;/font&gt;" style="rounded=0;whiteSpace=wrap;html=1;fillColor=#f5f5f5;fontColor=#333333;strokeColor=#666666;" vertex="1" parent="1">
          <mxGeometry x="70" y="285" width="30" height="50" as="geometry" />
        </mxCell>
        <mxCell id="9ypEuFz8uEkBkYpkdbPo-29" value="&lt;font face=&quot;Lexend&quot;&gt;&lt;b&gt;. . .&lt;/b&gt;&lt;/font&gt;" style="rounded=0;whiteSpace=wrap;html=1;fillColor=#f5f5f5;strokeColor=#666666;fontColor=#333333;" vertex="1" parent="1">
          <mxGeometry x="70" y="341" width="30" height="25" as="geometry" />
        </mxCell>
        <mxCell id="9ypEuFz8uEkBkYpkdbPo-31" value="&lt;font face=&quot;Lexend&quot;&gt;&lt;b&gt;40&lt;/b&gt;&lt;/font&gt;" style="rounded=0;whiteSpace=wrap;html=1;fillColor=#f5f5f5;strokeColor=#666666;fontColor=#333333;" vertex="1" parent="1">
          <mxGeometry x="100" y="341" width="30" height="25" as="geometry" />
        </mxCell>
        <mxCell id="9ypEuFz8uEkBkYpkdbPo-32" value="&lt;font face=&quot;Lexend&quot;&gt;&lt;b&gt;41&lt;/b&gt;&lt;/font&gt;" style="rounded=0;whiteSpace=wrap;html=1;fillColor=#f5f5f5;strokeColor=#666666;fontColor=#333333;" vertex="1" parent="1">
          <mxGeometry x="130" y="341" width="30" height="25" as="geometry" />
        </mxCell>
        <mxCell id="9ypEuFz8uEkBkYpkdbPo-33" value="&lt;font face=&quot;Lexend&quot;&gt;&lt;b&gt;42&lt;/b&gt;&lt;/font&gt;" style="rounded=0;whiteSpace=wrap;html=1;fillColor=#f5f5f5;strokeColor=#666666;fontColor=#333333;" vertex="1" parent="1">
          <mxGeometry x="160" y="341" width="30" height="25" as="geometry" />
        </mxCell>
        <mxCell id="9ypEuFz8uEkBkYpkdbPo-34" value="&lt;font face=&quot;Lexend&quot;&gt;&lt;b&gt;43&lt;/b&gt;&lt;/font&gt;" style="rounded=0;whiteSpace=wrap;html=1;fillColor=#f5f5f5;strokeColor=#666666;fontColor=#333333;" vertex="1" parent="1">
          <mxGeometry x="190" y="341" width="30" height="25" as="geometry" />
        </mxCell>
        <mxCell id="9ypEuFz8uEkBkYpkdbPo-35" value="&lt;font face=&quot;Lexend&quot;&gt;&lt;b&gt;44&lt;/b&gt;&lt;/font&gt;" style="rounded=0;whiteSpace=wrap;html=1;fillColor=#f5f5f5;strokeColor=#666666;fontColor=#333333;" vertex="1" parent="1">
          <mxGeometry x="220" y="341" width="30" height="25" as="geometry" />
        </mxCell>
        <mxCell id="9ypEuFz8uEkBkYpkdbPo-36" value="&lt;font face=&quot;Lexend&quot;&gt;&lt;b&gt;45&lt;/b&gt;&lt;/font&gt;" style="rounded=0;whiteSpace=wrap;html=1;fillColor=#f5f5f5;strokeColor=#666666;fontColor=#333333;" vertex="1" parent="1">
          <mxGeometry x="250" y="341" width="30" height="25" as="geometry" />
        </mxCell>
        <mxCell id="9ypEuFz8uEkBkYpkdbPo-37" value="&lt;font face=&quot;Lexend&quot;&gt;&lt;b&gt;46&lt;/b&gt;&lt;/font&gt;" style="rounded=0;whiteSpace=wrap;html=1;fillColor=#f5f5f5;strokeColor=#666666;fontColor=#333333;" vertex="1" parent="1">
          <mxGeometry x="280" y="341" width="30" height="25" as="geometry" />
        </mxCell>
        <mxCell id="9ypEuFz8uEkBkYpkdbPo-38" value="&lt;font face=&quot;Lexend&quot;&gt;&lt;b&gt;47&lt;/b&gt;&lt;/font&gt;" style="rounded=0;whiteSpace=wrap;html=1;fillColor=#f5f5f5;strokeColor=#666666;fontColor=#333333;" vertex="1" parent="1">
          <mxGeometry x="310" y="341" width="30" height="25" as="geometry" />
        </mxCell>
        <mxCell id="9ypEuFz8uEkBkYpkdbPo-39" value="&lt;font face=&quot;Lexend&quot;&gt;&lt;b&gt;48&lt;/b&gt;&lt;/font&gt;" style="rounded=0;whiteSpace=wrap;html=1;fillColor=#f5f5f5;strokeColor=#666666;fontColor=#333333;" vertex="1" parent="1">
          <mxGeometry x="340" y="341" width="30" height="25" as="geometry" />
        </mxCell>
        <mxCell id="9ypEuFz8uEkBkYpkdbPo-40" value="&lt;font face=&quot;Lexend&quot;&gt;&lt;b&gt;49&lt;/b&gt;&lt;/font&gt;" style="rounded=0;whiteSpace=wrap;html=1;fillColor=#f5f5f5;strokeColor=#666666;fontColor=#333333;" vertex="1" parent="1">
          <mxGeometry x="370" y="341" width="30" height="25" as="geometry" />
        </mxCell>
        <mxCell id="9ypEuFz8uEkBkYpkdbPo-41" value="&lt;font face=&quot;Lexend&quot;&gt;&lt;b&gt;50&lt;/b&gt;&lt;/font&gt;" style="rounded=0;whiteSpace=wrap;html=1;fillColor=#f5f5f5;strokeColor=#666666;fontColor=#333333;" vertex="1" parent="1">
          <mxGeometry x="400" y="341" width="30" height="25" as="geometry" />
        </mxCell>
        <mxCell id="9ypEuFz8uEkBkYpkdbPo-42" value="&lt;font face=&quot;Lexend&quot;&gt;&lt;b&gt;51&lt;/b&gt;&lt;/font&gt;" style="rounded=0;whiteSpace=wrap;html=1;fillColor=#f5f5f5;strokeColor=#666666;fontColor=#333333;" vertex="1" parent="1">
          <mxGeometry x="430" y="341" width="30" height="25" as="geometry" />
        </mxCell>
        <mxCell id="9ypEuFz8uEkBkYpkdbPo-43" value="&lt;font face=&quot;Lexend&quot;&gt;&lt;b&gt;53&lt;/b&gt;&lt;/font&gt;" style="rounded=0;whiteSpace=wrap;html=1;fillColor=#f5f5f5;strokeColor=#666666;fontColor=#333333;" vertex="1" parent="1">
          <mxGeometry x="460" y="341" width="30" height="25" as="geometry" />
        </mxCell>
        <mxCell id="9ypEuFz8uEkBkYpkdbPo-44" value="&lt;font face=&quot;Lexend&quot;&gt;&lt;b&gt;54&lt;/b&gt;&lt;/font&gt;" style="rounded=0;whiteSpace=wrap;html=1;fillColor=#f5f5f5;strokeColor=#666666;fontColor=#333333;" vertex="1" parent="1">
          <mxGeometry x="490" y="341" width="30" height="25" as="geometry" />
        </mxCell>
        <mxCell id="9ypEuFz8uEkBkYpkdbPo-45" value="&lt;font face=&quot;Lexend&quot;&gt;&lt;b&gt;55&lt;/b&gt;&lt;/font&gt;" style="rounded=0;whiteSpace=wrap;html=1;fillColor=#f5f5f5;strokeColor=#666666;fontColor=#333333;" vertex="1" parent="1">
          <mxGeometry x="520" y="341" width="30" height="25" as="geometry" />
        </mxCell>
        <mxCell id="9ypEuFz8uEkBkYpkdbPo-46" value="&lt;font face=&quot;Lexend&quot;&gt;&lt;b&gt;56&lt;/b&gt;&lt;/font&gt;" style="rounded=0;whiteSpace=wrap;html=1;fillColor=#f5f5f5;strokeColor=#666666;fontColor=#333333;" vertex="1" parent="1">
          <mxGeometry x="550" y="341" width="30" height="25" as="geometry" />
        </mxCell>
        <mxCell id="9ypEuFz8uEkBkYpkdbPo-47" value="&lt;font face=&quot;Lexend&quot;&gt;&lt;b&gt;. . .&lt;/b&gt;&lt;/font&gt;" style="rounded=0;whiteSpace=wrap;html=1;fillColor=#f5f5f5;strokeColor=#666666;fontColor=#333333;" vertex="1" parent="1">
          <mxGeometry x="580" y="341" width="30" height="25" as="geometry" />
        </mxCell>
        <mxCell id="9ypEuFz8uEkBkYpkdbPo-48" value="&lt;font face=&quot;Lexend&quot;&gt;&lt;b&gt;Positions&lt;/b&gt;&lt;/font&gt;" style="text;html=1;align=center;verticalAlign=middle;whiteSpace=wrap;rounded=0;" vertex="1" parent="1">
          <mxGeometry x="-10" y="295" width="60" height="30" as="geometry" />
        </mxCell>
        <mxCell id="9ypEuFz8uEkBkYpkdbPo-49" value="&lt;font face=&quot;Lexend&quot;&gt;&lt;b&gt;Indices&lt;/b&gt;&lt;/font&gt;" style="text;html=1;align=center;verticalAlign=middle;whiteSpace=wrap;rounded=0;" vertex="1" parent="1">
          <mxGeometry x="-10" y="338.5" width="60" height="30" as="geometry" />
        </mxCell>
        <mxCell id="9ypEuFz8uEkBkYpkdbPo-50" value="&lt;b&gt;&lt;font data-font-src=&quot;https://fonts.googleapis.com/css?family=Lexend&quot; face=&quot;Lexend&quot;&gt;Octree Node Buffer&lt;/font&gt;&lt;/b&gt;" style="rounded=0;whiteSpace=wrap;html=1;verticalAlign=bottom;fillColor=#dae8fc;strokeColor=#6c8ebf;" vertex="1" parent="1">
          <mxGeometry x="-20" y="420" width="660" height="140" as="geometry" />
        </mxCell>
        <mxCell id="9ypEuFz8uEkBkYpkdbPo-52" value="&lt;font face=&quot;Lexend&quot;&gt;&lt;b&gt;1&lt;/b&gt;&lt;/font&gt;" style="rounded=0;whiteSpace=wrap;html=1;fillColor=#f5f5f5;strokeColor=#666666;fontColor=#333333;" vertex="1" parent="1">
          <mxGeometry x="140" y="512" width="110" height="25" as="geometry" />
        </mxCell>
        <mxCell id="9ypEuFz8uEkBkYpkdbPo-78" style="edgeStyle=orthogonalEdgeStyle;rounded=0;orthogonalLoop=1;jettySize=auto;html=1;" edge="1" parent="1" source="9ypEuFz8uEkBkYpkdbPo-70" target="9ypEuFz8uEkBkYpkdbPo-31">
          <mxGeometry relative="1" as="geometry">
            <Array as="points">
              <mxPoint x="195" y="400" />
              <mxPoint x="115" y="400" />
            </Array>
          </mxGeometry>
        </mxCell>
        <mxCell id="9ypEuFz8uEkBkYpkdbPo-79" style="edgeStyle=orthogonalEdgeStyle;rounded=0;orthogonalLoop=1;jettySize=auto;html=1;entryX=0.5;entryY=1;entryDx=0;entryDy=0;" edge="1" parent="1" source="9ypEuFz8uEkBkYpkdbPo-70" target="9ypEuFz8uEkBkYpkdbPo-34">
          <mxGeometry relative="1" as="geometry">
            <Array as="points">
              <mxPoint x="195" y="400" />
              <mxPoint x="205" y="400" />
            </Array>
          </mxGeometry>
        </mxCell>
        <mxCell id="9ypEuFz8uEkBkYpkdbPo-70" value="&lt;div&gt;&lt;font face=&quot;Lexend&quot;&gt;&lt;b&gt;nodeBounds: [...]&lt;/b&gt;&lt;/font&gt;&lt;/div&gt;&lt;font face=&quot;Lexend&quot;&gt;&lt;b&gt;startIndex: 40&lt;/b&gt;&lt;/font&gt;&lt;div&gt;&lt;font face=&quot;Lexend&quot;&gt;&lt;b&gt;numIndices: 4&lt;/b&gt;&lt;/font&gt;&lt;/div&gt;" style="rounded=0;whiteSpace=wrap;html=1;fillColor=#f8cecc;strokeColor=#b85450;" vertex="1" parent="1">
          <mxGeometry x="140" y="430" width="110" height="75" as="geometry" />
        </mxCell>
        <mxCell id="9ypEuFz8uEkBkYpkdbPo-72" value="&lt;font face=&quot;Lexend&quot;&gt;&lt;b&gt;2&lt;/b&gt;&lt;/font&gt;" style="rounded=0;whiteSpace=wrap;html=1;fillColor=#f5f5f5;strokeColor=#666666;fontColor=#333333;" vertex="1" parent="1">
          <mxGeometry x="260" y="512" width="110" height="25" as="geometry" />
        </mxCell>
        <mxCell id="9ypEuFz8uEkBkYpkdbPo-80" style="edgeStyle=orthogonalEdgeStyle;rounded=0;orthogonalLoop=1;jettySize=auto;html=1;" edge="1" parent="1" source="9ypEuFz8uEkBkYpkdbPo-73" target="9ypEuFz8uEkBkYpkdbPo-35">
          <mxGeometry relative="1" as="geometry">
            <Array as="points">
              <mxPoint x="315" y="400" />
              <mxPoint x="235" y="400" />
            </Array>
          </mxGeometry>
        </mxCell>
        <mxCell id="9ypEuFz8uEkBkYpkdbPo-81" style="edgeStyle=orthogonalEdgeStyle;rounded=0;orthogonalLoop=1;jettySize=auto;html=1;entryX=0.5;entryY=1;entryDx=0;entryDy=0;" edge="1" parent="1" source="9ypEuFz8uEkBkYpkdbPo-73" target="9ypEuFz8uEkBkYpkdbPo-47">
          <mxGeometry relative="1" as="geometry">
            <Array as="points">
              <mxPoint x="315" y="400" />
              <mxPoint x="595" y="400" />
            </Array>
          </mxGeometry>
        </mxCell>
        <mxCell id="9ypEuFz8uEkBkYpkdbPo-73" value="&lt;div&gt;&lt;font face=&quot;Lexend&quot;&gt;&lt;b&gt;nodeBounds: [...]&lt;/b&gt;&lt;/font&gt;&lt;/div&gt;&lt;font face=&quot;Lexend&quot;&gt;&lt;b&gt;startIndex: 44&lt;/b&gt;&lt;/font&gt;&lt;div&gt;&lt;font face=&quot;Lexend&quot;&gt;&lt;b&gt;numIndices: 64&lt;/b&gt;&lt;/font&gt;&lt;/div&gt;" style="rounded=0;whiteSpace=wrap;html=1;fillColor=#e1d5e7;strokeColor=#9673a6;" vertex="1" parent="1">
          <mxGeometry x="260" y="430" width="110" height="75" as="geometry" />
        </mxCell>
        <mxCell id="9ypEuFz8uEkBkYpkdbPo-74" value="&lt;font face=&quot;Lexend&quot;&gt;&lt;b&gt;3&lt;/b&gt;&lt;/font&gt;" style="rounded=0;whiteSpace=wrap;html=1;fillColor=#f5f5f5;strokeColor=#666666;fontColor=#333333;" vertex="1" parent="1">
          <mxGeometry x="380" y="512" width="110" height="25" as="geometry" />
        </mxCell>
        <mxCell id="9ypEuFz8uEkBkYpkdbPo-75" value="&lt;div&gt;&lt;font face=&quot;Lexend&quot;&gt;&lt;b&gt;nodeBounds: [...]&lt;/b&gt;&lt;/font&gt;&lt;/div&gt;&lt;font face=&quot;Lexend&quot;&gt;&lt;b&gt;startIndex: 108&lt;/b&gt;&lt;/font&gt;&lt;div&gt;&lt;font face=&quot;Lexend&quot;&gt;&lt;b&gt;numIndices: 64&lt;/b&gt;&lt;/font&gt;&lt;/div&gt;" style="rounded=0;whiteSpace=wrap;html=1;fillColor=#f5f5f5;strokeColor=#666666;fontColor=#333333;" vertex="1" parent="1">
          <mxGeometry x="380" y="430" width="110" height="75" as="geometry" />
        </mxCell>
        <mxCell id="9ypEuFz8uEkBkYpkdbPo-76" value="&lt;font face=&quot;Lexend&quot;&gt;&lt;b&gt;. . .&lt;/b&gt;&lt;/font&gt;" style="rounded=0;whiteSpace=wrap;html=1;fillColor=#f5f5f5;strokeColor=#666666;fontColor=#333333;" vertex="1" parent="1">
          <mxGeometry x="500" y="512" width="110" height="25" as="geometry" />
        </mxCell>
        <mxCell id="9ypEuFz8uEkBkYpkdbPo-77" value="&lt;div&gt;&lt;font face=&quot;Lexend&quot;&gt;&lt;b&gt;. . .&lt;/b&gt;&lt;/font&gt;&lt;/div&gt;" style="rounded=0;whiteSpace=wrap;html=1;fillColor=#f5f5f5;strokeColor=#666666;fontColor=#333333;" vertex="1" parent="1">
          <mxGeometry x="500" y="430" width="110" height="75" as="geometry" />
        </mxCell>
        <mxCell id="9ypEuFz8uEkBkYpkdbPo-82" value="&lt;font face=&quot;Lexend&quot;&gt;&lt;b&gt;0&lt;/b&gt;&lt;/font&gt;" style="rounded=0;whiteSpace=wrap;html=1;fillColor=#f5f5f5;strokeColor=#666666;fontColor=#333333;" vertex="1" parent="1">
          <mxGeometry x="20" y="512" width="110" height="25" as="geometry" />
        </mxCell>
        <mxCell id="9ypEuFz8uEkBkYpkdbPo-83" value="&lt;div&gt;&lt;font face=&quot;Lexend&quot;&gt;&lt;b&gt;nodeBounds: [...]&lt;/b&gt;&lt;/font&gt;&lt;/div&gt;&lt;font face=&quot;Lexend&quot;&gt;&lt;b&gt;startIndex: 0&lt;/b&gt;&lt;/font&gt;&lt;div&gt;&lt;font face=&quot;Lexend&quot;&gt;&lt;b&gt;numIndices: 40&lt;/b&gt;&lt;/font&gt;&lt;/div&gt;" style="rounded=0;whiteSpace=wrap;html=1;fillColor=#f5f5f5;strokeColor=#666666;fontColor=#333333;" vertex="1" parent="1">
          <mxGeometry x="20" y="430" width="110" height="75" as="geometry" />
        </mxCell>
      </root>
    </mxGraphModel>
  </diagram>
</mxfile>
